Coordinates
version=1
nRows=10
nColumns=40
inDegrees=yes

Units are S.I. units (second, meters, Newtons, ...)
If the header above contains a line with 'inDegrees', this indicates whether rotational values are in degrees (yes) or radians (no).

endheader
time	pelvis_tilt	pelvis_list	pelvis_rotation	pelvis_tx	pelvis_ty	pelvis_tz	hip_flexion_r	hip_adduction_r	hip_rotation_r	knee_angle_r	knee_angle_r_beta	ankle_angle_r	subtalar_angle_r	mtp_angle_r	hip_flexion_l	hip_adduction_l	hip_rotation_l	knee_angle_l	knee_angle_l_beta	ankle_angle_l	subtalar_angle_l	mtp_angle_l	lumbar_extension	lumbar_bending	lumbar_rotation	arm_flex_r	arm_add_r	arm_rot_r	elbow_flex_r	pro_sup_r	wrist_flex_r	wrist_dev_r	arm_flex_l	arm_add_l	arm_rot_l	elbow_flex_l	pro_sup_l	wrist_flex_l	wrist_dev_l
      4.00833333	      6.04134198	     -0.57970346	      5.52113748	     -0.35656625	      1.07016480	      0.02900602	     51.88128969	    -11.90436492	     -1.24596900	    101.72396700	      1.77541815	     -7.91664701	    -18.86990867	      0.00000000	     44.25575346	     -4.55518752	      0.80165976	     47.81214282	      0.83447931	    -14.55484398	     -9.16903352	      0.00000000	    -73.27535824	      5.51545774	      2.31851232	     89.47322973	     -7.97198301	      3.90621131	     48.42306115	     88.68859364	      0.00000000	      0.00000000	     89.84388084	     -4.39839638	      7.55896997	     44.01558056	     84.87559534	      0.00000000	      0.00000000
      4.01666667	      5.96674497	     -1.08538491	      5.68205087	     -0.35643034	      1.07004036	      0.02893076	     53.16856403	    -11.81195108	     -1.47769805	    103.17695130	      1.80077751	     -7.33365869	    -18.82381001	      0.00000000	     42.87716022	     -4.78938683	      1.33437123	     45.91284510	      0.80133032	    -15.22542012	     -9.11263540	      0.00000000	    -73.19322658	      5.97336403	      2.79158721	     89.48199131	     -7.92348715	      3.95136747	     48.48307702	     88.69254390	      0.00000000	      0.00000000	     89.83860492	     -4.47400869	      7.62385153	     43.87333857	     84.82593272	      0.00000000	      0.00000000
      4.02500000	      5.98227753	     -1.50912620	      5.85171529	     -0.35613032	      1.06989106	      0.02869465	     54.35709697	    -11.83322327	     -1.66084018	    104.58500158	      1.82535263	     -6.66638130	    -18.71352413	      0.00000000	     41.51248338	     -5.08743978	      1.58177509	     44.24221917	      0.77217239	    -15.95866517	     -8.98921843	      0.00000000	    -73.17488754	      6.42046824	      3.21241960	     89.49274558	     -7.89284164	      4.02622804	     48.46083885	     88.69506965	      0.00000000	      0.00000000	     89.83077800	     -4.55116132	      7.72103677	     43.69199506	     84.76527001	      0.00000000	      0.00000000
      4.03333333	      6.26488731	     -1.31592578	      6.00337939	     -0.35561799	      1.07017466	      0.02801269	     55.36594233	    -12.43260812	     -1.22260834	    106.12303967	      1.85219645	     -5.41478237	    -17.30864719	      0.00000000	     39.63582960	     -4.86162097	      1.40059421	     42.43942764	      0.74070774	    -17.09138987	     -9.07907023	      0.00000000	    -73.40988908	      6.64396900	      3.02054743	     89.48902227	     -7.86082872	      4.25534937	     48.49478840	     88.69481127	      0.00000000	      0.00000000	     89.82345706	     -4.75968153	      8.06954198	     43.59502996	     84.43748375	      0.00000000	      0.00000000
      4.04166667	      6.25398606	     -1.81887368	      6.16614559	     -0.35533071	      1.06988801	      0.02792390	     56.62207180	    -12.42320864	     -1.50136005	    107.38126217	      1.87415658	     -5.35981188	    -17.02029206	      0.00000000	     38.42571466	     -5.30166763	      1.58440678	     41.03700527	      0.71623086	    -17.50998652	     -8.97188036	      0.00000000	    -73.35742184	      7.09821964	      3.53054841	     89.49588697	     -7.83405791	      4.27067780	     48.46090302	     88.70068528	      0.00000000	      0.00000000	     89.81769353	     -4.76379345	      8.13725493	     43.35514785	     84.40149009	      0.00000000	      0.00000000
      4.05000000	      6.24990393	     -2.24270726	      6.32773824	     -0.35507890	      1.06968820	      0.02783747	     57.88467697	    -12.47844647	     -1.67727409	    108.58661014	      1.89519387	     -4.87121993	    -16.81963936	      0.00000000	     37.22301763	     -5.69645089	      1.72434478	     39.68748416	      0.69267727	    -18.09261524	     -8.76159331	      0.00000000	    -73.32535870	      7.51548306	      3.94887076	     89.50264527	     -7.80981675	      4.32625303	     48.43223385	     88.70389896	      0.00000000	      0.00000000	     89.80675911	     -4.80394128	      8.20126677	     43.21156115	     84.35876769	      0.00000000	      0.00000000
      4.05833333	      6.21065094	     -2.54185366	      6.49955534	     -0.35481633	      1.06960322	      0.02776639	     59.17175562	    -12.62930036	     -1.72215754	    109.68876370	      1.91443008	     -3.80818511	    -16.78702998	      0.00000000	     35.99983713	     -5.98850434	      1.77478628	     38.27013088	      0.66793979	    -18.79993397	     -8.41014541	      0.00000000	    -73.28764767	      7.87135307	      4.24343505	     89.48097570	     -7.82051472	      4.36941348	     48.61146622	     88.70657467	      0.00000000	      0.00000000	     89.80987850	     -4.83243877	      8.29236323	     43.08303801	     84.29649539	      0.00000000	      0.00000000
      4.06666667	      6.42747850	     -2.26918441	      6.57747107	     -0.35439276	      1.06993840	      0.02726640	     60.33579334	    -13.22815683	     -1.15244000	    110.81494947	      1.93408573	     -2.79050024	    -15.24759967	      0.00000000	     34.33831566	     -5.88815748	      1.19260809	     36.85166699	      0.64318292	    -19.73423519	     -7.66747546	      0.00000000	    -73.48128896	      7.96725265	      3.98437692	     89.49421252	     -7.81143052	      4.62054945	     48.58584443	     88.70335883	      0.00000000	      0.00000000	     89.79706150	     -5.03100776	      8.54677131	     43.08009662	     84.03962449	      0.00000000	      0.00000000
      4.07500000	      6.38624802	     -2.64949494	      6.69375298	     -0.35419414	      1.06975476	      0.02728210	     61.67474839	    -13.24203699	     -1.28912794	    111.68559575	      1.94928137	     -2.30895475	    -15.06980215	      0.00000000	     33.30223124	     -6.25888410	      1.41191897	     35.84452632	      0.62560500	    -19.89380171	     -7.54751303	      0.00000000	    -73.41637836	      8.31477992	      4.36057365	     89.49042530	     -7.76843061	      4.62007565	     48.57018728	     88.70632960	      0.00000000	      0.00000000	     89.79297799	     -5.03647737	      8.58191698	     42.87931052	     83.99756731	      0.00000000	      0.00000000
      4.08333333	      6.36034379	     -2.58306503	      6.70299765	     -0.35403056	      1.06968238	      0.02720274	     63.07263015	    -13.52181703	     -0.85928212	    112.56400167	      1.96461245	     -1.55681140	    -13.86518020	      0.00000000	     32.11229343	     -6.30804419	      1.14665082	     34.77258251	      0.60689605	    -20.53371451	     -7.20914134	      0.00000000	    -73.37547586	      8.39164336	      4.29596511	     89.48352881	     -7.73655745	      4.75189458	     48.60470178	     88.70441904	      0.00000000	      0.00000000	     89.78958565	     -5.14480500	      8.69865735	     42.82819548	     83.76813935	      0.00000000	      0.00000000
